<?xml version="1.0" standalone="no"?>
<!DOCTYPE svg PUBLIC "-//W3C//DTD SVG 20010904//EN"
 "http://www.w3.org/TR/2001/REC-SVG-20010904/DTD/svg10.dtd">
<svg version="1.0" xmlns="http://www.w3.org/2000/svg"
 width="810.000000pt" height="338.000000pt" viewBox="0 0 810.000000 338.000000"
 preserveAspectRatio="xMidYMid meet">
<metadata>
Created by potrace 1.16, written by Peter Selinger 2001-2019
</metadata>
<g transform="translate(0.000000,338.000000) scale(0.100000,-0.100000)"
fill="#000000" stroke="none">
<path d="M0 1690 l0 -1690 1644 0 c1306 0 1645 3 1649 13 4 9 6 9 6 0 1 -10
488 -13 2401 -13 l2400 0 0 1690 0 1690 -4050 0 -4050 0 0 -1690z m1872 1544
c12 -3 47 -8 77 -9 52 -3 119 -17 166 -36 11 -4 41 -15 68 -25 61 -22 182
-126 182 -157 0 -4 5 -11 11 -15 6 -4 19 -22 28 -39 14 -28 14 -32 1 -27 -8 4
-15 10 -15 15 0 5 -9 9 -20 9 -17 0 -14 -7 20 -52 43 -56 51 -75 99 -234 32
-106 39 -143 19 -109 -11 19 -11 19 -18 0 -11 -32 5 -91 37 -132 50 -64 113
-195 113 -235 0 -17 -3 -18 -15 -8 -8 6 -19 9 -25 5 -7 -4 -44 -9 -83 -10 -40
-2 -85 -6 -100 -8 -36 -7 -43 10 -23 57 8 20 12 36 8 36 -4 0 -29 -21 -57 -46
-27 -26 -42 -44 -32 -40 21 7 23 -12 2 -20 -8 -4 -15 -12 -15 -19 0 -8 -6 -20
-14 -27 -36 -37 -47 -138 -11 -108 12 10 15 10 15 -2 0 -8 -3 -18 -7 -22 -11
-11 -10 -30 1 -38 7 -4 2 -16 -11 -30 -22 -23 -22 -23 -2 -48 16 -21 20 -23
29 -10 5 8 10 21 10 28 0 31 26 40 107 38 45 0 79 -3 77 -5 -2 -2 1 -10 8 -18
15 -18 2 -29 -17 -13 -26 21 -134 -15 -111 -37 4 -4 12 0 17 10 11 19 34 23
45 5 4 -6 3 -8 -2 -5 -6 3 -16 2 -24 -3 -12 -7 -12 -13 -1 -34 21 -39 71 -45
71 -8 0 10 9 23 19 29 18 11 19 10 11 -17 -4 -16 -12 -36 -18 -46 -6 -11 -5
-26 6 -46 22 -46 11 -114 -26 -150 -33 -34 -65 -36 -34 -2 19 20 19 20 -19 41
-29 16 -39 18 -39 8 0 -8 -5 -17 -12 -21 -7 -5 -9 -2 -6 7 3 8 -1 21 -10 29
-14 12 -15 11 -10 -8 4 -13 0 -28 -9 -37 -20 -21 -33 -19 -33 5 0 16 -4 19
-17 12 -21 -11 -46 -5 -37 9 10 17 -7 31 -23 17 -12 -10 -15 -9 -13 7 4 36 0
55 -11 55 -6 0 -9 -7 -5 -15 7 -19 -1 -19 -19 -1 -11 10 -11 16 -2 26 9 9 8
11 -8 8 -11 -2 -19 -10 -17 -17 1 -7 -2 -10 -7 -7 -5 4 -15 -2 -21 -11 -10
-16 -11 -16 -7 4 4 16 1 20 -11 16 -11 -5 -13 -3 -7 8 7 12 6 12 -7 1 -8 -7
-23 -10 -32 -6 -12 5 -15 2 -10 -10 3 -9 1 -16 -5 -16 -6 0 -11 6 -11 13 -1 6
-7 1 -14 -12 -9 -17 -15 -20 -21 -11 -4 7 -2 16 6 22 10 7 4 8 -20 5 -37 -4
-110 16 -93 27 6 4 8 14 5 24 -6 15 -5 15 10 3 15 -12 17 -12 11 3 -10 27 -41
38 -64 24 -16 -10 -22 -10 -32 1 -11 11 -9 13 10 8 29 -7 28 0 -5 31 -16 15
-29 20 -31 13 -2 -6 -8 -9 -12 -6 -5 3 -11 1 -15 -5 -3 -5 -1 -10 5 -10 8 0 7
-6 -1 -21 -8 -15 -8 -19 0 -15 6 4 11 3 11 -3 0 -19 -26 -18 -49 3 l-23 21 22
-40 c12 -22 28 -45 37 -52 12 -9 12 -16 3 -33 -6 -12 -9 -24 -6 -28 3 -3 6 0
6 6 0 29 16 9 17 -21 1 -26 -5 -35 -25 -45 -21 -10 -29 -9 -42 3 -9 8 -20 15
-24 15 -4 0 -48 26 -99 58 -120 76 -213 127 -260 142 l-39 12 7 47 c7 47 29
82 48 78 15 -3 76 113 69 132 -4 10 -1 13 11 8 9 -3 19 -2 22 3 10 16 -12 20
-31 5 -25 -19 -44 -19 -44 1 0 12 6 15 21 11 21 -6 52 17 61 44 4 11 11 10 34
-5 27 -17 26 -16 -7 17 -71 71 -118 157 -119 220 0 15 -4 27 -8 27 -5 0 -8 10
-7 23 1 12 -3 25 -9 29 -7 5 -6 8 4 9 11 0 11 2 -2 7 -16 7 -16 8 3 20 12 8
18 9 14 3 -11 -20 7 -12 29 12 12 13 29 26 38 29 9 4 22 17 28 28 10 19 9 21
-7 16 -20 -6 -21 -4 -25 44 -2 19 -3 19 -25 -2 -27 -25 -30 -18 -6 20 l17 27
-28 -25 c-15 -13 -32 -36 -39 -49 -7 -13 -17 -26 -24 -28 -7 -3 -3 12 8 34 10
20 19 43 19 50 0 21 -28 15 -35 -8 -4 -11 -10 -18 -13 -14 -3 3 -17 -17 -29
-46 -13 -29 -26 -49 -30 -45 -4 3 -1 12 5 18 7 7 12 18 12 26 0 25 -25 -4 -46
-53 -10 -25 -21 -45 -25 -45 -15 0 1 46 32 89 24 34 28 46 17 52 -8 5 -9 9 -2
9 7 0 14 9 17 20 7 26 -5 26 -21 0 -7 -12 -18 -18 -24 -14 -6 4 -8 3 -5 -3 4
-6 -2 -18 -12 -27 -17 -16 -19 -16 -24 6 -4 12 -4 34 -1 48 l5 25 -15 -25
c-15 -24 -15 -24 -16 -3 0 12 5 25 10 28 8 5 8 11 0 20 -8 9 -8 15 0 20 6 3 7
12 4 18 -4 7 -3 9 1 4 5 -4 17 0 27 10 20 18 25 38 6 27 -8 -5 -9 -2 -3 12 4
10 14 35 21 54 7 19 13 27 14 18 0 -10 5 -18 11 -18 5 0 9 8 8 18 -4 25 10 72
21 72 19 0 30 -48 19 -77 -8 -22 -12 -24 -19 -13 -8 12 -10 10 -10 -7 0 -25
-15 -31 -23 -10 -2 6 -4 0 -4 -15 0 -26 0 -26 20 -7 12 11 27 17 34 15 7 -3
12 -2 11 2 -1 4 3 23 9 42 6 19 14 47 17 61 3 14 12 26 21 26 11 0 14 -7 10
-21 -6 -21 -6 -21 9 -1 30 39 37 45 47 40 5 -4 9 8 9 25 0 24 -6 33 -27 41
-19 7 -24 12 -15 18 7 4 12 12 11 17 -4 22 2 35 14 31 6 -2 25 2 40 10 16 8
31 12 34 10 2 -3 -5 -8 -16 -12 -27 -8 -27 -19 2 -33 19 -10 19 -11 2 -8 -11
2 -28 6 -37 10 -10 5 -23 6 -30 3 -8 -3 -6 -6 5 -6 10 -1 15 -5 12 -11 -3 -5
-1 -10 4 -10 6 0 11 -9 11 -19 0 -11 5 -23 10 -26 6 -3 10 -16 10 -28 1 -22 1
-22 16 -2 13 17 16 18 24 5 5 -8 10 -22 10 -29 0 -12 3 -12 12 -3 10 10 10 15
-1 21 -10 7 -10 10 -1 16 7 4 17 1 22 -6 8 -11 9 -10 5 3 -3 9 -1 18 5 20 8 3
8 10 2 21 -9 16 -12 16 -32 -3 -11 -11 -24 -20 -27 -20 -9 0 -5 39 5 45 6 4 8
11 5 16 -4 5 -1 9 6 9 7 0 9 10 7 25 -5 24 14 36 26 16 7 -10 54 -2 62 10 3 5
-5 9 -16 9 -16 0 -20 5 -16 15 3 9 0 15 -9 15 -8 0 -15 -6 -15 -14 0 -12 -18
-14 -75 -7 -5 1 6 11 25 24 19 12 36 20 37 17 1 -3 8 4 16 14 11 15 22 18 56
13 29 -3 43 -1 49 8 11 20 180 27 234 9z m4735 -105 c354 -48 647 -307 733
-647 8 -29 19 -51 24 -49 6 2 10 12 10 21 -1 12 3 15 17 11 17 -6 18 -3 9 20
-10 27 -6 45 11 45 5 0 9 -14 9 -32 0 -31 0 -31 20 -13 13 12 20 29 18 44 -2
21 -11 27 -48 37 -43 11 -44 12 -20 21 14 6 31 8 39 5 11 -4 11 -1 1 18 -10
18 -9 21 2 18 7 -3 19 -15 25 -29 7 -13 13 -19 14 -14 1 6 5 -7 8 -28 6 -36 7
-37 26 -23 20 14 20 15 -3 39 l-24 25 24 27 c24 28 76 60 84 52 3 -3 -9 -28
-26 -56 -16 -29 -30 -53 -30 -55 0 -2 17 -3 37 -2 28 1 38 -3 41 -16 3 -14 -7
-18 -47 -24 -54 -7 -84 -27 -56 -37 12 -5 13 -12 4 -33 -12 -32 -6 -54 16 -54
17 0 20 16 6 25 -16 9 -8 45 10 45 31 0 49 -12 49 -31 0 -25 1 -25 44 16 23
22 34 39 30 47 -11 17 -6 71 8 83 8 7 9 6 4 -2 -3 -6 -2 -33 3 -60 21 -108 21
-113 5 -106 -9 3 -29 -5 -47 -17 -20 -16 -32 -19 -35 -12 -2 7 -8 9 -14 6 -5
-3 0 -13 11 -21 12 -8 27 -11 33 -7 20 12 118 15 118 3 0 -6 -23 -9 -56 -8
-38 2 -58 -2 -64 -11 -6 -10 -12 -11 -22 -3 -7 6 -24 14 -38 18 -25 8 -25 8
-6 -14 11 -11 25 -21 33 -21 7 0 13 -4 13 -10 0 -16 -40 -11 -46 5 -6 14 -8
13 -20 -2 -18 -24 -17 -34 1 -27 8 4 15 1 15 -5 0 -6 -7 -11 -15 -11 -8 0 -15
-5 -15 -11 0 -5 8 -9 18 -8 31 3 42 -1 42 -15 0 -8 -6 -16 -14 -19 -8 -3 -14
-15 -13 -26 1 -22 12 -27 22 -11 3 5 16 15 28 20 12 6 2 -7 -22 -29 -47 -44
-61 -46 -53 -6 2 14 2 25 -1 25 -10 0 -37 -63 -37 -86 0 -32 -10 -55 -22 -48
-5 3 -4 -3 3 -14 13 -20 13 -20 27 -1 7 10 19 19 27 19 8 0 19 9 25 20 6 11
20 25 33 31 l22 12 -20 -23 -20 -23 39 7 c36 7 38 6 27 -8 -10 -12 -11 -16 -1
-16 10 0 10 -3 0 -15 -15 -17 -7 -19 21 -5 24 13 24 9 0 -38 -36 -73 -36 -77
10 -77 36 0 58 -14 59 -37 0 -5 -21 -8 -46 -8 -54 0 -134 -19 -134 -31 0 -5
-10 -7 -23 -4 -15 4 -28 1 -36 -9 -16 -19 -6 -36 20 -36 26 0 24 -27 -3 -41
-13 -7 -26 -17 -30 -23 -5 -7 -8 -7 -8 2 0 7 -4 10 -10 7 -14 -9 -12 -34 4
-51 20 -20 26 -18 26 11 0 14 5 25 10 25 6 0 10 -9 10 -21 0 -16 4 -19 20 -14
14 4 20 2 20 -8 0 -9 -5 -17 -11 -19 -7 -2 -7 -12 0 -33 10 -26 9 -28 -3 -12
-7 9 -16 17 -20 17 -17 0 -32 -28 -31 -60 0 -32 -4 -37 -46 -57 -26 -12 -58
-36 -72 -52 -13 -16 -40 -35 -58 -40 l-34 -11 38 5 c32 3 38 1 33 -11 -3 -9 5
-26 19 -40 31 -31 31 -32 -2 -45 -26 -11 -103 -20 -103 -13 0 2 25 11 55 20
l56 18 -23 21 c-13 11 -35 26 -50 32 -16 7 -28 19 -28 28 0 8 -5 15 -10 15
-16 0 -30 44 -16 52 7 5 5 8 -6 8 -14 0 -16 5 -10 23 5 12 7 46 6 75 -3 50 -1
53 19 51 12 -2 42 10 67 26 39 25 42 29 25 35 -11 4 -23 6 -27 3 -13 -7 -9 22
5 41 10 14 24 17 60 15 30 -3 43 -1 36 6 -5 5 -25 8 -44 6 -33 -2 -47 11 -25
24 21 13 9 23 -15 12 -14 -7 -25 -18 -25 -25 0 -9 -7 -9 -30 3 -28 15 -29 17
-14 32 15 16 15 18 -8 37 -19 16 -23 27 -18 46 5 20 1 27 -19 37 -15 7 -33 16
-41 21 -70 40 -78 42 -105 21 -24 -20 -65 -19 -65 2 0 5 -7 9 -15 9 -8 0 -15
-6 -15 -14 0 -8 -15 -17 -36 -20 -26 -5 -34 -11 -30 -22 3 -8 -1 -17 -9 -20
-8 -4 -13 -10 -10 -15 7 -11 -26 -28 -44 -21 -10 3 -12 0 -8 -11 3 -9 2 -19
-2 -22 -5 -3 -7 -14 -4 -24 3 -13 -2 -21 -15 -25 -27 -9 -22 -30 14 -58 39
-31 54 -51 49 -65 -3 -7 -8 -19 -11 -27 -4 -10 6 -14 42 -14 26 -1 54 4 61 10
9 7 22 7 45 -3 18 -8 38 -13 45 -11 16 4 27 -36 14 -52 -6 -7 -38 -32 -70 -54
l-58 -42 -29 25 c-33 28 -72 38 -126 31 -37 -4 -87 -31 -101 -53 -4 -7 -14
-10 -21 -7 -25 10 -54 -15 -81 -68 l-27 -53 -111 6 c-190 10 -337 65 -492 181
-136 103 -255 278 -305 448 -27 94 -38 305 -21 406 26 146 114 320 221 437
187 203 470 304 747 266z m471 -1609 c-7 -11 -16 -20 -19 -20 -4 0 -9 -6 -12
-14 -4 -9 10 -5 39 11 34 19 44 21 44 10 0 -8 -14 -20 -30 -27 -17 -7 -36 -22
-41 -32 -9 -16 -17 -19 -42 -14 -23 4 -28 3 -17 -4 8 -5 23 -10 33 -10 11 0
17 -6 15 -17 -5 -26 38 -43 74 -31 16 6 31 8 34 5 3 -3 -8 -24 -25 -48 -38
-51 -38 -59 -6 -59 14 0 25 5 25 10 0 6 7 10 15 10 9 0 30 7 48 16 50 25 18
-2 -36 -30 -36 -19 -63 -26 -105 -26 -52 1 -55 2 -38 15 11 8 28 15 37 15 18
0 36 36 25 48 -4 3 -20 -5 -37 -17 l-31 -23 7 23 c7 20 6 22 -6 12 -9 -7 -20
-8 -29 -3 -18 11 2 37 33 42 17 3 12 7 -21 16 -39 12 -42 15 -35 40 8 35 45
92 59 92 6 0 17 7 24 15 18 22 32 18 18 -5z m-4119 -106 c14 -17 21 -41 21
-68 0 -27 -3 -36 -9 -27 -7 10 -17 -2 -37 -45 -16 -32 -35 -60 -41 -60 -7 -1
-18 -2 -24 -3 -6 0 -9 -7 -6 -14 3 -7 -4 -19 -14 -25 -10 -7 -19 -19 -19 -26
0 -8 -8 -28 -17 -45 -16 -28 -16 -33 -3 -41 12 -8 12 -10 -5 -10 -16 0 -17 -2
-6 -9 16 -10 44 -3 36 9 -8 13 28 21 39 9 8 -9 7 -10 -3 -4 -9 5 -12 4 -7 -3
4 -7 24 -3 60 14 29 13 84 35 122 48 63 22 70 28 84 63 23 59 68 131 90 143
47 25 110 -10 110 -61 0 -21 12 -24 38 -9 9 5 44 23 77 39 33 16 82 41 109 55
53 28 105 33 136 14 15 -10 22 -10 32 0 13 13 50 16 62 5 4 -5 24 -8 43 -8 42
0 66 -26 44 -47 -11 -11 -12 -10 -6 2 8 13 7 13 -11 0 -39 -29 -75 -60 -72
-60 2 0 17 4 35 9 23 7 37 5 52 -6 20 -13 31 -50 12 -38 -5 3 -12 1 -16 -5 -5
-9 -69 -40 -82 -40 -2 0 -2 4 2 9 7 13 -8 22 -21 13 -6 -4 -16 -16 -22 -27
-11 -20 -11 -20 -12 1 0 12 9 33 20 47 l20 25 -21 -5 c-17 -5 -19 -2 -13 21 4
19 3 26 -6 24 -10 -2 -23 12 -37 40 0 2 -16 -4 -33 -13 -39 -20 -62 -7 -39 22
8 10 -2 4 -22 -12 -20 -17 -46 -44 -58 -62 -22 -31 -85 -69 -107 -65 -6 1 -17
-5 -24 -13 -7 -8 -19 -15 -27 -15 -9 0 -13 -6 -9 -15 8 -21 -11 -19 -23 3 -6
9 -11 12 -11 5 0 -20 30 -43 47 -36 11 4 14 3 9 -5 -11 -18 -34 -14 -56 8 -11
11 -20 16 -20 11 0 -5 -9 -11 -21 -14 -11 -3 -23 -15 -26 -26 -4 -16 -11 -19
-28 -15 -13 3 -26 1 -29 -5 -4 -5 -12 -8 -19 -6 -7 3 -23 -5 -37 -16 -16 -14
-19 -19 -7 -15 27 8 20 -8 -13 -32 -30 -23 -55 -62 -62 -97 -1 -11 -5 -22 -8
-25 -8 -8 -59 -114 -62 -130 -2 -8 -11 -23 -20 -34 -10 -11 -18 -26 -18 -33 0
-7 -5 -13 -11 -13 -6 0 -9 -6 -6 -12 2 -7 -2 -21 -11 -30 -12 -14 -12 -18 -2
-18 7 0 11 -3 8 -6 -3 -3 -25 4 -48 16 -23 12 -47 19 -53 17 -7 -3 0 -8 16
-12 15 -4 27 -10 27 -15 0 -4 10 -12 23 -18 19 -9 20 -11 3 -11 -19 -1 -19 -1
0 -23 14 -16 8 -14 -21 8 -22 16 -45 34 -52 40 -6 6 -25 17 -42 24 -17 7 -31
16 -31 20 0 14 -65 18 -96 5 -21 -9 -36 -10 -45 -3 -11 8 -11 9 3 5 10 -4 18
1 21 14 3 10 1 19 -3 19 -17 0 -23 98 -11 200 11 98 16 113 73 225 33 66 77
145 98 175 21 31 45 70 53 87 35 67 64 78 96 37z m753 -207 c-2 -10 -7 -15
-10 -12 -3 2 -11 0 -18 -6 -10 -8 -11 -16 -4 -30 8 -14 7 -17 -3 -13 -8 3 -25
-10 -41 -31 -15 -19 -33 -35 -40 -35 -7 0 -30 -16 -51 -35 -23 -23 -43 -34
-54 -30 -11 3 -26 -4 -40 -19 -13 -13 -35 -27 -49 -31 -15 -3 -57 -38 -94 -77
-38 -39 -68 -66 -68 -60 0 6 5 14 10 17 6 3 10 17 10 30 0 13 4 27 10 30 5 3
15 15 21 27 10 19 9 20 -15 16 -14 -3 -26 -1 -26 4 0 10 -63 -31 -68 -44 -5
-11 -83 -51 -88 -45 -7 6 18 60 33 72 7 6 23 30 36 55 27 51 67 77 94 61 17
-10 17 -10 1 -11 -11 0 -15 -5 -12 -15 4 -10 0 -15 -14 -15 -11 0 -22 -8 -25
-20 -5 -19 8 -39 15 -22 1 5 50 32 108 61 58 29 125 70 150 91 55 45 178 130
190 130 4 0 11 8 15 18 5 14 9 12 19 -13 7 -16 11 -38 8 -48z m1522 -335 c8
-13 -54 -94 -68 -89 -6 2 -63 -41 -128 -95 -102 -86 -121 -107 -147 -162 -33
-71 -54 -85 -84 -59 -19 18 -21 16 -79 -47 -71 -77 -138 -124 -153 -109 -7 7
-4 14 10 21 11 6 63 53 116 105 83 81 98 92 109 78 18 -22 28 -19 45 15 15 30
15 30 -11 30 -19 0 -25 4 -20 15 5 13 -17 15 -157 15 l-163 0 -9 -32 c-13 -41
-53 -69 -101 -72 -27 -1 -48 -11 -69 -30 -56 -52 -102 -85 -109 -78 -4 4 -15
7 -24 7 -11 0 -17 8 -16 23 0 12 -2 21 -6 20 -10 -5 -150 -155 -150 -161 0 -4
50 -6 111 -6 61 0 114 -3 117 -6 4 -3 -51 -5 -121 -4 l-127 1 -56 -46 c-54
-44 -74 -55 -74 -38 0 4 32 34 71 67 81 69 164 160 215 237 20 29 41 53 48 53
7 0 11 -18 10 -47 0 -27 2 -48 5 -48 3 0 17 9 31 20 14 11 31 20 38 20 7 0 33
19 58 42 34 31 48 38 56 30 19 -19 35 -14 58 18 l21 30 -445 0 -446 0 0 -164
0 -164 56 -1 c31 0 59 -3 63 -6 3 -3 -24 -5 -59 -3 l-65 3 -3 173 -2 172 350
0 c192 0 350 2 350 5 0 4 -7 19 -15 36 -14 26 -14 30 0 35 21 9 55 -24 55 -53
l0 -23 278 0 279 0 39 29 c21 15 48 38 58 50 11 11 26 21 35 21 9 1 59 41 111
90 96 91 105 97 114 82z m16 -262 c0 -7 318 -10 935 -10 l935 0 -2 -172 -3
-173 -996 -2 -996 -3 -57 -25 c-54 -24 -76 -25 -76 -5 0 5 14 11 30 15 17 4
30 11 30 16 0 5 7 9 15 9 8 0 40 21 72 47 32 26 80 59 107 73 35 18 52 35 59
55 20 61 55 77 77 35 7 -13 4 -24 -10 -42 -14 -19 -16 -28 -8 -36 16 -16 5
-24 -39 -27 -51 -3 -122 -36 -157 -74 l-30 -31 932 0 c915 0 932 0 932 19 0
11 -9 23 -20 26 -11 4 -27 20 -36 36 -14 27 -14 35 1 82 8 29 21 63 29 76 l14
24 12 -22 c6 -13 9 -34 6 -47 -8 -32 2 -31 14 2 8 20 6 34 -5 57 -17 34 -19
47 -7 47 17 0 77 -142 77 -182 0 -39 -21 -68 -57 -80 -6 -2 -9 -12 -5 -21 4
-12 18 -17 47 -17 l40 0 0 165 0 165 -770 0 -770 0 -4 -22 c-3 -13 -10 -54
-17 -93 -12 -73 -22 -98 -47 -127 -21 -25 -34 -11 -18 20 7 15 19 63 26 107 7
44 16 88 22 98 8 16 0 17 -139 15 l-148 -3 -45 -112 c-46 -115 -61 -140 -78
-129 -6 3 10 54 38 123 l47 118 -136 5 -136 6 142 2 c81 1 144 6 148 12 3 6
10 10 16 10 5 0 9 -4 9 -10z m928 -166 c31 -21 27 -49 -10 -77 -41 -30 -90
-47 -138 -47 -20 0 -45 -7 -56 -15 -20 -15 -54 -20 -54 -7 1 7 64 56 102 78
11 6 31 23 46 36 53 49 76 56 110 32z m-1808 -123 c5 -11 10 -29 10 -40 0 -20
6 -21 133 -22 164 -2 164 -2 209 24 40 22 59 18 38 -8 -11 -13 -3 -15 64 -15
85 0 126 15 98 36 -14 10 -12 14 17 28 60 32 82 0 33 -48 -28 -26 -32 -27
-138 -26 -80 1 -119 -3 -147 -14 -33 -15 -38 -15 -43 -1 -5 12 -28 15 -131 15
l-124 0 -26 -30 c-17 -21 -34 -30 -54 -30 -36 0 -38 17 -4 26 14 3 25 12 25
20 0 18 -24 18 -40 -1 -13 -16 -30 -11 -30 9 0 18 69 96 85 96 8 0 19 -9 25
-19z"/>
<path d="M2253 2611 c-5 -8 -20 -15 -33 -16 -14 -1 -25 -6 -25 -12 0 -5 -16
-23 -35 -39 -51 -42 -85 -77 -85 -86 0 -5 -6 -13 -14 -17 -17 -11 12 -22 73
-26 22 -2 47 -4 54 -4 14 -1 17 -51 2 -51 -5 0 -10 -4 -10 -10 0 -5 15 -10 33
-11 17 0 27 -3 21 -5 -19 -8 27 -53 47 -45 9 3 41 29 71 58 63 61 78 79 78 92
0 6 9 15 20 21 16 9 20 21 20 65 0 51 -2 55 -24 55 -13 0 -26 5 -28 12 -5 13
-20 17 -99 27 -44 5 -59 3 -66 -8z"/>
<path d="M1423 2491 c-43 -27 -60 -92 -35 -137 8 -15 13 -11 31 25 12 23 29
45 37 48 21 8 47 -16 34 -32 -5 -6 -7 -15 -3 -18 3 -4 1 -7 -5 -7 -13 0 -16
-40 -6 -77 9 -34 49 -55 89 -47 32 6 35 9 35 41 0 27 9 42 42 74 l42 39 -22
16 c-12 8 -22 21 -22 27 0 23 -18 39 -47 43 -16 2 -42 8 -57 14 -41 15 -77 12
-113 -9z"/>
<path d="M2994 957 c-12 -6 -39 -22 -61 -34 -22 -12 -50 -37 -63 -56 -22 -32
-25 -34 -38 -19 -7 10 -11 12 -8 7 2 -6 1 -17 -5 -25 -7 -12 -9 -11 -10 5 0
14 -2 16 -6 5 -3 -8 -17 -26 -30 -40 l-23 -25 27 -5 c16 -3 30 -2 31 2 2 4 9
8 17 8 7 0 18 7 25 15 7 9 18 14 24 12 6 -3 42 23 80 57 51 47 67 67 64 84 -3
19 -6 20 -24 9z"/>
</g>
</svg>
